<svg width="121" height="121" viewBox="0 0 121 121" fill="none" xmlns="http://www.w3.org/2000/svg">
<g clip-path="url(#clip0_2558_1233)">
<path d="M92.6406 0H28.3594C12.6969 0 0 12.6969 0 28.3594V92.6406C0 108.303 12.6969 121 28.3594 121H92.6406C108.303 121 121 108.303 121 92.6406V28.3594C121 12.6969 108.303 0 92.6406 0Z" fill="#0277BD"/>
<path d="M25.4067 48.5186L26.7594 63.6162H60.5454V48.5186H25.4067ZM60.5449 17.9609H22.6875L24.0601 33.0585H60.5449V17.9609ZM60.5449 103.437V87.7288L60.4787 87.7463L43.6645 83.2064L42.5896 71.165H27.4339L29.5491 94.8706L60.4754 103.456L60.5449 103.437Z" fill="#EBEBEB"/>
<path d="M79.0832 63.6162L77.3306 83.1965L60.4922 87.7415V103.448L91.4431 94.8706L91.67 92.3197L95.2178 52.5731L95.586 48.5186L98.3118 17.9609H60.4922V33.0585H81.766L80.3924 48.5186H60.4922V63.6162H79.0832Z" fill="white"/>
</g>
<defs>
<clipPath id="clip0_2558_1233">
<rect width="121" height="121" fill="white"/>
</clipPath>
</defs>
</svg>
