<svg width="121" height="121" viewBox="0 0 121 121" fill="none" xmlns="http://www.w3.org/2000/svg">
<g clip-path="url(#clip0_2558_1238)">
<path d="M0 0H121V121H0V0Z" fill="#F7DF1E"/>
<path d="M31.8159 101.103L41.0752 95.4988C42.8619 98.666 44.4869 101.346 48.3849 101.346C52.1212 101.346 54.4774 99.8845 54.4774 94.1994V55.5371H65.8481V94.3601C65.8481 106.137 58.9445 111.498 48.8722 111.498C39.7759 111.498 34.4959 106.787 31.8154 101.102M72.0243 99.8841L81.2827 94.5237C83.7202 98.5039 86.8879 101.428 92.4917 101.428C97.2037 101.428 100.208 99.072 100.208 95.823C100.208 91.9245 97.1214 90.5434 91.9231 88.27L89.0811 87.0505C80.8772 83.559 75.4355 79.1727 75.4355 69.9134C75.4355 61.3848 81.9331 54.8867 92.0862 54.8867C99.315 54.8867 104.513 57.405 108.249 63.9839L99.3954 69.67C97.4456 66.1775 95.3348 64.7969 92.0857 64.7969C88.7554 64.7969 86.6436 66.9087 86.6436 69.67C86.6436 73.0811 88.7554 74.4627 93.6285 76.5745L96.471 77.7926C106.137 81.9354 111.579 86.1586 111.579 95.6609C111.579 105.896 103.538 111.5 92.7352 111.5C82.1765 111.5 75.3537 106.464 72.0238 99.8845" fill="black"/>
</g>
<defs>
<clipPath id="clip0_2558_1238">
<rect width="121" height="121" fill="white"/>
</clipPath>
</defs>
</svg>
