<svg width="121" height="121" viewBox="0 0 121 121" fill="none" xmlns="http://www.w3.org/2000/svg">
<path d="M60.501 45.375C88.6486 45.375 105.876 55.1684 105.876 60.5C105.876 65.8316 88.6486 75.625 60.501 75.625C32.3534 75.625 15.126 65.8316 15.126 60.5C15.126 55.1684 32.3534 45.375 60.501 45.375ZM60.501 37.8125C31.2644 37.8125 7.56348 47.9689 7.56348 60.5C7.56348 73.0311 31.2644 83.1875 60.501 83.1875C89.7376 83.1875 113.438 73.0311 113.438 60.5C113.438 47.9689 89.7376 37.8125 60.501 37.8125Z" fill="#00BCD4"/>
<path d="M60.501 52.9375C59.0053 52.9375 57.5431 53.381 56.2995 54.212C55.0558 55.043 54.0865 56.2241 53.5141 57.606C52.9418 58.9878 52.792 60.5084 53.0838 61.9754C53.3756 63.4424 54.0959 64.7899 55.1535 65.8475C56.2111 66.9051 57.5586 67.6254 59.0256 67.9172C60.4926 68.209 62.0132 68.0592 63.395 67.4868C64.7769 66.9145 65.958 65.9451 66.789 64.7015C67.6199 63.4579 68.0635 61.9957 68.0635 60.5C68.0635 58.4943 67.2667 56.5708 65.8485 55.1525C64.4302 53.7343 62.5067 52.9375 60.501 52.9375Z" fill="#00BCD4"/>
<path d="M39.543 20.8281C47.1698 20.8281 61.9923 32.8412 73.5969 52.9423C87.6707 77.32 87.8031 97.1338 83.1862 99.7995C82.6536 100.076 82.0574 100.206 81.4581 100.178C73.8314 100.178 59.0051 88.1684 47.4004 68.0673C33.3266 43.6896 33.1943 23.8758 37.8112 21.21C38.3449 20.9332 38.9424 20.799 39.543 20.8281ZM39.5392 13.2694C37.6121 13.2345 35.7105 13.7135 34.0299 14.6571C23.1777 20.9227 26.233 46.5293 40.8513 71.8485C53.2689 93.3638 70.0425 107.744 81.4619 107.744C83.3884 107.776 85.2887 107.294 86.9674 106.349C97.8196 100.087 94.7644 74.4803 80.146 49.161C67.7284 27.6457 50.9548 13.2656 39.5354 13.2656L39.5392 13.2694Z" fill="#00BCD4"/>
<path d="M81.4612 20.8297C82.0605 20.8012 82.6566 20.9316 83.1892 21.2078C87.8061 23.8774 87.6738 43.6911 73.6 68.0688C61.9915 88.17 47.169 100.183 39.5422 100.183C38.943 100.211 38.3468 100.081 37.8142 99.8049C33.1973 97.1315 33.3297 77.3178 47.4035 52.9438C59.0119 32.8427 73.8344 20.8297 81.4612 20.8297ZM81.4612 13.2672C70.0418 13.2672 53.272 27.651 40.8506 49.1626C26.2398 74.4818 23.1808 100.088 34.033 106.35C35.7128 107.296 37.6145 107.778 39.5422 107.745C50.9616 107.745 67.7315 93.3616 80.1529 71.8501C94.7636 46.5308 97.8227 20.9242 86.9705 14.6625C85.2906 13.7162 83.389 13.2346 81.4612 13.2672Z" fill="#00BCD4"/>
</svg>
