<svg width="51" height="52" viewBox="0 0 51 52" fill="none" xmlns="http://www.w3.org/2000/svg">
<path d="M1.08801 25.3953C1.08681 29.7138 2.21519 33.9305 4.36077 37.6471L0.882812 50.3457L13.8783 46.9382C17.4726 48.895 21.4999 49.9202 25.5923 49.9206H25.6031C39.1131 49.9206 50.1106 38.9271 50.1163 25.4147C50.1189 18.8669 47.5713 12.7099 42.9427 8.07764C38.3148 3.4458 32.16 0.893613 25.6021 0.890625C12.0905 0.890625 1.09379 11.8835 1.08821 25.3953" fill="url(#paint0_linear_2546_1196)"/>
<path d="M0.213164 25.3837C0.21177 29.8575 1.38059 34.225 3.60267 38.0747L0 51.2285L13.4614 47.6989C17.1705 49.7212 21.3465 50.7874 25.5958 50.789H25.6068C39.6015 50.789 50.994 39.4001 51 25.404C51.0024 18.621 48.3631 12.2426 43.5691 7.44441C38.7745 2.64682 32.3995 0.00278906 25.6068 0C11.6097 0 0.218742 11.3873 0.213164 25.3837ZM8.22993 37.4117L7.7273 36.6138C5.61438 33.2542 4.49916 29.3718 4.50075 25.3853C4.50513 13.7519 13.9728 4.28719 25.6147 4.28719C31.2526 4.28958 36.5511 6.48736 40.5362 10.4749C44.5212 14.4629 46.714 19.7641 46.7126 25.4024C46.7074 37.0358 37.2396 46.5016 25.6068 46.5016H25.5984C21.8107 46.4997 18.0958 45.4824 14.8561 43.5602L14.0852 43.103L6.09689 45.1974L8.22993 37.4117Z" fill="url(#paint1_linear_2546_1196)"/>
<path d="M19.2604 14.7751C18.7851 13.7187 18.2848 13.6974 17.8328 13.6788C17.4626 13.6629 17.0395 13.6641 16.6168 13.6641C16.1936 13.6641 15.5061 13.8233 14.925 14.4578C14.3433 15.0929 12.7041 16.6277 12.7041 19.7492C12.7041 22.8708 14.9778 25.8877 15.2947 26.3115C15.6121 26.7344 19.6841 33.3453 26.1332 35.8885C31.493 38.002 32.5837 37.5817 33.747 37.4757C34.9104 37.3701 37.5011 35.9413 38.0296 34.4597C38.5585 32.9783 38.5585 31.7085 38.3999 31.4432C38.2414 31.1788 37.8182 31.02 37.1837 30.7029C36.5492 30.3857 33.4296 28.8505 32.8481 28.6388C32.2664 28.4272 31.8434 28.3216 31.4203 28.9569C30.9972 29.5912 29.7821 31.02 29.4118 31.4432C29.0418 31.8673 28.6715 31.9201 28.0372 31.6027C27.4023 31.2844 25.3589 30.6152 22.9346 28.4539C21.0484 26.7721 19.775 24.6952 19.4048 24.0599C19.0347 23.4256 19.3652 23.0818 19.6833 22.7656C19.9684 22.4813 20.318 22.0247 20.6356 21.6543C20.952 21.2838 21.0575 21.0194 21.2691 20.5963C21.4809 20.1728 21.3749 19.8022 21.2165 19.4849C21.0575 19.1675 19.8246 16.0296 19.2604 14.7751Z" fill="white"/>
<defs>
<linearGradient id="paint0_linear_2546_1196" x1="2462.56" y1="4946.4" x2="2462.56" y2="0.890625" gradientUnits="userSpaceOnUse">
<stop stop-color="#1FAF38"/>
<stop offset="1" stop-color="#60D669"/>
</linearGradient>
<linearGradient id="paint1_linear_2546_1196" x1="2550" y1="5122.85" x2="2550" y2="0" gradientUnits="userSpaceOnUse">
<stop stop-color="#F9F9F9"/>
<stop offset="1" stop-color="white"/>
</linearGradient>
</defs>
</svg>
